<svg width="32" height="32" viewBox="0 0 32 32" fill="none" xmlns="http://www.w3.org/2000/svg">
    <rect width="32" height="32" rx="16" fill="#F5F7FB" />
    <path
        d="M14.7805 7.82918C15.1397 6.72361 16.7038 6.72361 17.063 7.82918L18.3465 11.7793C18.5072 12.2738 18.9679 12.6085 19.4878 12.6085H23.6412C24.8037 12.6085 25.287 14.0961 24.3466 14.7793L20.9864 17.2207C20.5658 17.5262 20.3898 18.0679 20.5504 18.5623L21.8339 22.5125C22.1931 23.618 20.9278 24.5374 19.9873 23.8541L16.6271 21.4128C16.2065 21.1072 15.637 21.1072 15.2164 21.4128L11.8562 23.8541C10.9158 24.5374 9.65038 23.618 10.0096 22.5125L11.2931 18.5623C11.4537 18.0679 11.2777 17.5262 10.8572 17.2207L7.49696 14.7793C6.5565 14.0961 7.03983 12.6085 8.2023 12.6085H12.3557C12.8756 12.6085 13.3364 12.2738 13.497 11.7793L14.7805 7.82918Z"
        fill="#D7D9E1" />
</svg>